<svg version="1.1" xmlns="http://www.w3.org/2000/svg" xmlns:xlink="http://www.w3.org/1999/xlink" x="0px" y="0px" width="21.3px" height="20.1px" viewBox="0 0 21.3 20.1" style="overflow:visible;enable-background:new 0 0 21.3 20.1;" xml:space="preserve"><style type="text/css"></style><defs></defs><g id="Layer_2_2_"><g><path class="st0" d="M6.1,0c0.1,4.8,0.3,9.5,0.4,14.3c2.8,0,5.5,0,8.4,0c0.1-3,0.1-5.8,0.3-8.7c-1,0-1.9,0-3,0c0,1.9,0,3.9-0.1,5.8c-1,0-1.8,0-2.8,0c0-3-0.1-5.8-0.1-8.7c3,0,6,0,9,0c-0.3,4.8-0.4,9.5-0.6,14.3c-4.6,0-9.1,0-13.7,0C3.6,11.5,3.3,5.7,3.1,0C2.1,0,1,0,0,0c0.4,6.7,0.7,13.4,1.2,20.1c5.4,0,10.7,0,16.3,0c0.9,0,1.8,0,2.7,0c0.4-6.7,0.7-13.4,1.2-20.1C16.3,0,11.3,0,6.1,0z" style="fill: rgb(146, 16, 38);"></path></g></g></svg>
